<svg width="31" height="30" viewBox="0 0 31 30" xmlns="http://www.w3.org/2000/svg"><title>LinkedIN</title><g fill="none" fill-rule="evenodd"><path d="M0 15C0 6.716 6.94 0 15.5 0 24.06 0 31 6.716 31 15c0 8.284-6.94 15-15.5 15C6.94 30 0 23.284 0 15z" fill="#0077B5"/><path d="M10.954 12.424v10.213H7.44V12.424h3.513zm.231-3.16c0 .98-.763 1.766-1.988 1.766h-.022c-1.18 0-1.942-.785-1.942-1.766 0-1.001.786-1.764 1.988-1.764 1.201 0 1.941.763 1.964 1.764zm12.437 7.517v5.856h-3.513v-5.464c0-1.373-.508-2.31-1.78-2.31-.97 0-1.548.632-1.802 1.242-.093.219-.116.523-.116.828v5.704h-3.513s.046-9.255 0-10.213h3.513v1.447c.466-.696 1.301-1.687 3.166-1.687 2.312 0 4.045 1.46 4.045 4.597z" fill="#FFF"/></g></svg>