<svg width="31" height="30" viewBox="0 0 31 30" xmlns="http://www.w3.org/2000/svg"><title>Behance</title><g fill="none" fill-rule="evenodd"><path d="M0 15C0 6.716 6.94 0 15.5 0 24.06 0 31 6.716 31 15c0 8.284-6.94 15-15.5 15C6.94 30 0 23.284 0 15z" fill="#1769FF"/><path d="M17.798 11.669h4.378v-1.214h-4.378v1.214zm1.037 2.648c-.279.275-.455.647-.527 1.117h3.406c-.036-.501-.213-.88-.526-1.14-.317-.26-.707-.389-1.174-.389-.505 0-.9.138-1.179.412zm2.955-1.63c.528.225.963.582 1.305 1.068.312.429.512.926.604 1.491.053.33.075.81.066 1.432H18.26c.033.723.293 1.231.791 1.522.301.18.664.271 1.09.271.448 0 .814-.11 1.095-.33a1.59 1.59 0 0 0 .408-.496h2.017c-.054.426-.299.862-.732 1.303-.677.701-1.625 1.052-2.843 1.052-1.006 0-1.893-.295-2.66-.887-.771-.591-1.154-1.555-1.154-2.887 0-1.25.347-2.21 1.04-2.877.695-.665 1.594-1 2.701-1 .659 0 1.25.113 1.777.339zM9.27 15.46v2.601h2.48c.444 0 .79-.057 1.036-.171.448-.214.672-.619.672-1.218 0-.509-.216-.857-.65-1.047-.244-.106-.585-.161-1.022-.165H9.27zm0-3.766v2.152h2.485c.442 0 .802-.08 1.08-.242.277-.162.416-.448.416-.856 0-.456-.183-.755-.549-.902-.317-.101-.719-.152-1.208-.152H9.27zm5.549-.655c.312.415.468.91.468 1.49 0 .594-.156 1.074-.472 1.436-.177.202-.437.388-.78.555.521.182.914.468 1.181.861.265.392.398.869.398 1.43a2.75 2.75 0 0 1-.456 1.555c-.193.303-.434.56-.723.767-.326.239-.71.401-1.154.49a7.438 7.438 0 0 1-1.444.131H7.233V10h4.938c1.246.018 2.128.364 2.648 1.04z" fill="#FFF"/></g></svg>