<svg width="31" height="30" viewBox="0 0 31 30" xmlns="http://www.w3.org/2000/svg"><title>Twitter</title><g fill="none" fill-rule="evenodd"><path d="M0 15C0 6.716 6.94 0 15.5 0 24.06 0 31 6.716 31 15c0 8.284-6.94 15-15.5 15C6.94 30 0 23.284 0 15z" fill="#55ACEE"/><path d="M15.036 12.192l.032.52-.542-.064c-1.973-.244-3.697-1.07-5.16-2.458l-.716-.688-.184.508c-.39 1.134-.141 2.33.672 3.136.433.444.336.508-.412.243-.26-.085-.488-.148-.51-.116-.076.074.185 1.038.39 1.419.282.53.857 1.049 1.486 1.356l.531.243-.629.011c-.607 0-.629.01-.564.233.217.689 1.074 1.42 2.028 1.737l.672.223-.585.339a6.259 6.259 0 0 1-2.906.784c-.488.01-.889.053-.889.084 0 .106 1.323.7 2.092.932 2.31.689 5.053.392 7.113-.783 1.463-.837 2.927-2.5 3.61-4.11.369-.858.737-2.426.737-3.178 0-.487.033-.55.64-1.133.358-.34.694-.71.759-.816.108-.201.098-.201-.455-.021-.922.317-1.052.275-.597-.202.336-.339.738-.953.738-1.133 0-.032-.163.021-.347.117-.195.106-.63.264-.954.36l-.586.18-.531-.35c-.293-.19-.705-.402-.922-.466-.553-.148-1.398-.127-1.897.043-1.355.476-2.212 1.705-2.114 3.05z" fill="#FFF"/></g></svg>