<svg width="31" height="30" viewBox="0 0 31 30" xmlns="http://www.w3.org/2000/svg"><title>WhatsApp</title><g fill="none" fill-rule="evenodd"><ellipse fill="#25D366" cx="15.5" cy="15" rx="15.5" ry="15"/><path d="M16.01 23.345h-.003a9.452 9.452 0 0 1-4.404-1.085L6.717 23.5l1.307-4.622a8.683 8.683 0 0 1-1.23-4.46C6.796 9.502 10.93 5.5 16.01 5.5c2.465.001 4.78.93 6.52 2.616 1.74 1.686 2.698 3.927 2.697 6.31-.002 4.917-4.135 8.917-9.217 8.92zm-4.181-2.7l.28.16a7.844 7.844 0 0 0 3.899 1.034h.003c4.222 0 7.659-3.326 7.66-7.414.001-1.98-.795-3.843-2.241-5.244a7.739 7.739 0 0 0-5.416-2.174c-4.226 0-7.662 3.325-7.664 7.412 0 1.401.405 2.765 1.171 3.946l.182.28-.773 2.736 2.899-.736zm8.825-4.098c-.057-.093-.21-.149-.441-.26-.23-.112-1.363-.651-1.574-.725-.21-.075-.364-.112-.518.111-.153.223-.595.725-.73.874-.133.149-.268.167-.498.056-.23-.112-.972-.347-1.852-1.106-.685-.591-1.147-1.321-1.281-1.544-.135-.223-.015-.344.1-.455.104-.1.231-.26.346-.39.115-.13.154-.224.23-.372.077-.15.039-.28-.019-.39-.057-.112-.518-1.21-.71-1.656-.187-.434-.377-.375-.518-.382a9.451 9.451 0 0 0-.441-.008.859.859 0 0 0-.614.279c-.211.223-.806.762-.806 1.859s.825 2.157.94 2.305c.115.15 1.624 2.4 3.934 3.366.55.23.978.366 1.313.47a3.254 3.254 0 0 0 1.45.087c.443-.064 1.363-.539 1.555-1.06.192-.52.192-.966.134-1.059z" fill="#FDFDFD"/></g></svg>