<svg width="275" height="52" viewBox="0 0 275 52" xmlns="http://www.w3.org/2000/svg" xmlns:xlink="http://www.w3.org/1999/xlink"><title>logo</title><defs><path d="M3.234 11.156H9.5c2.823 0 4.896.48 6.219 1.438 1.323.958 1.984 2.406 1.984 4.344 0 1.322-.404 2.424-1.21 3.304-.808.88-1.988 1.445-3.54 1.695v.094c1.823.271 3.164.847 4.024 1.727.859.88 1.289 2.107 1.289 3.68 0 2.104-.698 3.723-2.094 4.859C14.776 33.432 12.797 34 10.234 34h-7V11.156zm1.594 10.172H9.86c2.146 0 3.706-.357 4.68-1.07.974-.714 1.461-1.83 1.461-3.352 0-1.52-.55-2.625-1.648-3.312-1.1-.688-2.737-1.031-4.915-1.031H4.829v8.765zm0 1.406v9.86h5.375c4.23 0 6.344-1.719 6.344-5.157 0-3.135-2.23-4.703-6.688-4.703H4.83zm20.063 1.313V34h-1.594V11.156h5.437c2.834 0 4.927.524 6.282 1.57 1.354 1.047 2.03 2.623 2.03 4.727 0 1.531-.403 2.823-1.21 3.875-.807 1.052-2.034 1.807-3.68 2.266L38.36 34h-1.906l-5.89-9.953H24.89zm0-1.375h4.359c1.927 0 3.422-.43 4.484-1.29 1.063-.859 1.594-2.127 1.594-3.804 0-1.74-.52-3.005-1.562-3.797-1.042-.791-2.74-1.187-5.094-1.187H24.89v10.078zm34.218-11.516v14.781c0 2.626-.76 4.678-2.28 6.157-1.522 1.479-3.641 2.218-6.36 2.218-2.646 0-4.711-.742-6.196-2.226-1.484-1.484-2.226-3.555-2.226-6.211V11.156h1.61v14.781c0 2.198.609 3.91 1.827 5.133 1.22 1.224 2.943 1.836 5.172 1.836 2.177 0 3.865-.601 5.063-1.804 1.198-1.204 1.797-2.873 1.797-5.008V11.156h1.593zM81.937 34h-1.609L66.797 13.719h-.125c.125 2.416.187 4.24.187 5.469V34h-1.53V11.156h1.593l13.516 20.25h.093c-.094-1.875-.14-3.656-.14-5.343V11.155h1.546V34zm25.672-11.453c0 3.625-.906 6.492-2.718 8.601-1.813 2.11-4.313 3.165-7.5 3.165-3.177 0-5.672-1.055-7.485-3.165-1.812-2.109-2.719-4.987-2.719-8.632 0-3.636.915-6.498 2.743-8.586 1.828-2.089 4.325-3.133 7.492-3.133 3.187 0 5.682 1.05 7.484 3.148 1.802 2.1 2.703 4.966 2.703 8.602zm-18.687 0c0 3.27.729 5.8 2.187 7.586 1.459 1.786 3.552 2.68 6.282 2.68 2.75 0 4.851-.886 6.304-2.657 1.453-1.77 2.18-4.307 2.18-7.61 0-3.29-.727-5.814-2.18-7.57-1.453-1.755-3.544-2.632-6.273-2.632-2.719 0-4.815.885-6.29 2.656-1.473 1.77-2.21 4.286-2.21 7.547z" id="a"/><path d="M122.203 14.86c-1.823 0-3.234.684-4.234 2.054-1 1.37-1.5 3.279-1.5 5.727 0 5.093 1.911 7.64 5.734 7.64 1.604 0 3.547-.4 5.828-1.203v4.063c-1.875.78-3.968 1.172-6.281 1.172-3.323 0-5.865-1.008-7.625-3.024-1.76-2.016-2.64-4.909-2.64-8.68 0-2.375.432-4.455 1.296-6.242.865-1.786 2.107-3.156 3.727-4.11 1.62-.952 3.518-1.429 5.695-1.429 2.219 0 4.448.537 6.688 1.61l-1.563 3.937a25.864 25.864 0 0 0-2.578-1.063 7.691 7.691 0 0 0-2.547-.453zM146.875 34l-1.656-5.438h-8.328L135.234 34h-5.218l8.062-22.938H144L152.094 34h-5.219zm-2.813-9.5a1608.425 1608.425 0 0 1-2.585-8.36 23.597 23.597 0 0 1-.415-1.53c-.343 1.333-1.328 4.63-2.953 9.89h5.953zm20.579 9.5l-5.5-17.922H159c.198 3.646.297 6.078.297 7.297V34h-4.328V11.156h6.594l5.406 17.469h.094l5.734-17.469h6.594V34h-4.516V23.187c0-.51.008-1.098.023-1.765.016-.667.086-2.438.211-5.313h-.14L169.079 34h-4.438zm34.484 0l-1.656-5.438h-8.328L187.484 34h-5.218l8.062-22.938h5.922L204.344 34h-5.219zm-2.813-9.5a1608.425 1608.425 0 0 1-2.585-8.36 23.597 23.597 0 0 1-.415-1.53c-.343 1.333-1.328 4.63-2.953 9.89h5.953zm15.75-3.203h1.563c1.531 0 2.661-.255 3.39-.766.73-.51 1.094-1.312 1.094-2.406 0-1.083-.372-1.854-1.117-2.313-.745-.458-1.898-.687-3.46-.687h-1.47v6.172zm0 3.937V34h-4.843V11.156h6.656c3.104 0 5.401.565 6.89 1.696C222.256 13.982 223 15.698 223 18c0 1.344-.37 2.54-1.11 3.586-.739 1.047-1.786 1.867-3.14 2.46 3.438 5.136 5.677 8.454 6.719 9.954h-5.375l-5.453-8.766h-2.578zm24.954-4.062h9.062v11.844c-1.469.479-2.851.815-4.148 1.007a26.99 26.99 0 0 1-3.977.29c-3.448 0-6.08-1.014-7.898-3.04-1.818-2.026-2.727-4.934-2.727-8.726 0-3.688 1.055-6.563 3.164-8.625 2.11-2.063 5.034-3.094 8.774-3.094 2.343 0 4.604.469 6.78 1.406l-1.608 3.875c-1.667-.833-3.402-1.25-5.204-1.25-2.093 0-3.77.703-5.03 2.11-1.261 1.406-1.892 3.297-1.892 5.672 0 2.479.508 4.372 1.524 5.68 1.016 1.307 2.492 1.96 4.43 1.96 1.01 0 2.036-.104 3.078-.312v-4.766h-4.328v-4.031zm35.234 1.375c0 3.781-.937 6.687-2.813 8.719-1.875 2.03-4.562 3.047-8.062 3.047-3.5 0-6.187-1.016-8.063-3.047-1.875-2.032-2.812-4.948-2.812-8.75 0-3.802.94-6.706 2.82-8.711 1.88-2.006 4.576-3.008 8.086-3.008 3.51 0 6.196 1.01 8.055 3.031 1.86 2.021 2.789 4.927 2.789 8.719zm-16.672 0c0 2.552.484 4.474 1.453 5.765.969 1.292 2.417 1.938 4.344 1.938 3.865 0 5.797-2.568 5.797-7.703 0-5.146-1.922-7.719-5.766-7.719-1.927 0-3.38.649-4.36 1.945-.978 1.297-1.468 3.222-1.468 5.774z" id="b"/><path d="M7.43 7.877c0 .966-.327 1.707-.984 2.222-.656.515-1.586.772-2.789.772H2.112V15h-.697V5.006h2.447c2.38 0 3.569.957 3.569 2.871zM2.113 10.27h1.374c1.126 0 1.94-.186 2.44-.558.502-.371.753-.974.753-1.808 0-.77-.237-1.34-.711-1.712-.474-.372-1.208-.557-2.201-.557H2.112v4.635zM12.36 7.426c.315 0 .652.032 1.012.095l-.13.65a3.96 3.96 0 0 0-.964-.116c-.633 0-1.153.269-1.558.806-.406.538-.609 1.217-.609 2.037V15h-.676V7.57h.574l.068 1.34h.048c.305-.548.631-.932.978-1.153.346-.22.765-.331 1.257-.331zm8.388 3.848c0 1.213-.294 2.16-.882 2.84-.588.682-1.399 1.023-2.433 1.023-.652 0-1.226-.158-1.723-.472-.497-.314-.877-.766-1.142-1.353-.264-.588-.396-1.267-.396-2.038 0-1.212.294-2.156.882-2.833.588-.677 1.394-1.015 2.42-1.015 1.02 0 1.821.343 2.402 1.029.582.685.872 1.625.872 2.82zm-5.865 0c0 1.021.224 1.818.673 2.39.45.572 1.084.857 1.904.857.82 0 1.455-.285 1.904-.857.449-.572.673-1.369.673-2.39 0-1.025-.227-1.82-.68-2.385-.453-.565-1.09-.848-1.91-.848-.821 0-1.453.281-1.898.844-.444.563-.666 1.36-.666 2.39zm10.643-3.848c.538 0 1.003.098 1.395.294.392.196.743.53 1.053 1.005h.04a35.505 35.505 0 0 1-.04-1.689V4.363h.67V15h-.445l-.17-1.135h-.055c-.565.848-1.377 1.272-2.434 1.272-1.025 0-1.81-.32-2.352-.957-.542-.638-.813-1.568-.813-2.79 0-1.285.269-2.267.807-2.946.537-.679 1.319-1.018 2.344-1.018zm0 .615c-.81 0-1.42.285-1.828.855-.408.57-.612 1.396-.612 2.481 0 2.105.818 3.158 2.454 3.158.839 0 1.454-.244 1.846-.731.392-.488.588-1.292.588-2.413v-.117c0-1.148-.193-1.974-.578-2.478-.385-.503-1.008-.755-1.87-.755zm6.2-.472v4.813c0 .747.158 1.29.472 1.63.315.34.802.51 1.463.51.884 0 1.535-.224 1.952-.67.417-.447.625-1.174.625-2.181V7.569h.67V15h-.574l-.123-1.025h-.041c-.483.774-1.342 1.162-2.577 1.162-1.691 0-2.536-.905-2.536-2.714V7.569h.67zm10.637 7.568c-1.062 0-1.893-.335-2.495-1.005-.601-.67-.902-1.604-.902-2.803 0-1.23.312-2.189.936-2.874.625-.686 1.48-1.03 2.564-1.03.642 0 1.258.112 1.846.336l-.185.601c-.643-.214-1.2-.321-1.675-.321-.911 0-1.602.281-2.071.844-.47.563-.704 1.373-.704 2.43 0 1.003.234 1.788.704 2.355.47.568 1.126.851 1.969.851.674 0 1.3-.12 1.88-.362v.63c-.474.232-1.097.348-1.867.348zm5.647-.602c.428 0 .802-.036 1.12-.11v.548a3.585 3.585 0 0 1-1.134.164c-.656 0-1.14-.176-1.453-.527-.312-.35-.468-.902-.468-1.654V8.157h-1.1v-.396l1.1-.308.342-1.682h.349V7.57h2.18v.588h-2.18v4.703c0 .57.1.992.3 1.265.201.273.515.41.944.41zm14.123-4.628c0 1.677-.44 2.945-1.32 3.804-.88.86-2.171 1.289-3.875 1.289h-2.393V5.006h2.7c1.595 0 2.809.417 3.64 1.25.832.835 1.248 2.052 1.248 3.651zm-.759.028c0-1.431-.363-2.508-1.09-3.23-.727-.723-1.795-1.084-3.203-1.084h-1.839v8.764h1.655c2.985 0 4.477-1.484 4.477-4.45zm5.886 5.202c-1.08 0-1.922-.333-2.526-.998-.604-.666-.906-1.598-.906-2.796 0-1.185.292-2.134.875-2.847.583-.714 1.37-1.07 2.359-1.07.875 0 1.565.305 2.07.916.507.61.76 1.44.76 2.488v.547h-5.353c.01 1.02.247 1.8.714 2.338.468.538 1.136.806 2.007.806.424 0 .796-.03 1.117-.088.322-.06.728-.187 1.22-.383v.615a5.453 5.453 0 0 1-1.161.373 6.45 6.45 0 0 1-1.176.099zm-.198-7.11c-.716 0-1.29.236-1.723.708-.433.472-.686 1.152-.759 2.04h4.594c0-.86-.187-1.534-.56-2.02-.374-.485-.892-.728-1.552-.728zm9.488 5.038c0 .666-.253 1.177-.759 1.535-.506.358-1.224.537-2.153.537-.994 0-1.782-.153-2.366-.458v-.732a5.22 5.22 0 0 0 2.366.56c.733 0 1.29-.121 1.671-.365.38-.244.57-.568.57-.974 0-.374-.15-.688-.454-.943-.303-.256-.8-.506-1.493-.752-.743-.27-1.265-.5-1.566-.694a2.163 2.163 0 0 1-.68-.656c-.153-.244-.229-.542-.229-.893 0-.556.234-.995.7-1.319.468-.323 1.12-.485 1.96-.485.801 0 1.562.15 2.282.451l-.252.615c-.73-.3-1.406-.451-2.03-.451-.607 0-1.088.1-1.443.3-.356.201-.533.48-.533.835 0 .387.138.697.413.93.276.232.815.492 1.617.779.67.241 1.157.459 1.463.653.305.193.534.413.687.66.152.245.229.535.229.867zM79.139 15h-.676V7.57h.677V15zm-.772-9.495c0-.438.144-.656.43-.656.142 0 .253.057.332.17.08.114.12.276.12.486 0 .205-.04.367-.12.485a.378.378 0 0 1-.331.178c-.287 0-.43-.221-.43-.663zm9.058 2.064v.472l-1.538.096c.41.51.615 1.07.615 1.681 0 .716-.238 1.296-.714 1.74-.477.444-1.116.667-1.918.667a4.19 4.19 0 0 1-.71-.041 1.769 1.769 0 0 0-.616.499 1.007 1.007 0 0 0-.212.608c0 .237.09.41.27.52.18.109.482.164.906.164h1.299c.806 0 1.424.163 1.852.488.429.326.643.808.643 1.446 0 .784-.318 1.389-.954 1.815-.636.426-1.541.64-2.717.64-.934 0-1.658-.18-2.17-.54-.513-.36-.77-.862-.77-1.505 0-.51.159-.934.476-1.271.316-.337.746-.568 1.288-.69a1.31 1.31 0 0 1-.537-.407.968.968 0 0 1-.201-.605c0-.497.317-.935.95-1.313a2.118 2.118 0 0 1-1.012-.837 2.39 2.39 0 0 1-.362-1.31c0-.742.236-1.338.707-1.787.472-.449 1.109-.673 1.911-.673.488 0 .866.048 1.135.143h2.379zm-6.016 8.689c0 1.02.759 1.531 2.277 1.531 1.95 0 2.925-.622 2.925-1.866 0-.447-.152-.77-.458-.97-.305-.201-.8-.302-1.483-.302h-1.217c-1.363 0-2.044.536-2.044 1.607zm.568-6.371c0 .574.174 1.02.523 1.336.348.317.814.475 1.397.475.62 0 1.095-.157 1.426-.471.33-.315.495-.77.495-1.368 0-.633-.17-1.108-.509-1.425-.34-.317-.815-.475-1.425-.475-.593 0-1.059.17-1.398.51-.34.339-.51.812-.51 1.418zM94.13 15v-4.82c0-.747-.157-1.29-.472-1.63-.314-.34-.802-.509-1.463-.509-.888 0-1.539.224-1.951.673-.413.45-.619 1.177-.619 2.184V15h-.677V7.57h.574l.13 1.018h.041c.483-.775 1.342-1.162 2.577-1.162 1.687 0 2.53.904 2.53 2.714V15h-.67zm6.077.137c-1.08 0-1.922-.333-2.526-.998-.604-.666-.906-1.598-.906-2.796 0-1.185.292-2.134.875-2.847.584-.714 1.37-1.07 2.359-1.07.875 0 1.565.305 2.071.916.506.61.759 1.44.759 2.488v.547h-5.353c.01 1.02.248 1.8.715 2.338.467.538 1.136.806 2.006.806.424 0 .796-.03 1.118-.088.321-.06.728-.187 1.22-.383v.615c-.42.182-.807.307-1.162.373a6.45 6.45 0 0 1-1.176.099zm-.198-7.11c-.716 0-1.29.236-1.723.708-.433.472-.686 1.152-.759 2.04h4.594c0-.86-.187-1.534-.56-2.02-.374-.485-.891-.728-1.552-.728zm7.806-.601c.315 0 .652.032 1.012.095l-.13.65a3.96 3.96 0 0 0-.964-.116c-.633 0-1.153.269-1.558.806-.406.538-.609 1.217-.609 2.037V15h-.676V7.57h.574l.068 1.34h.048c.305-.548.631-.932.978-1.153.346-.22.765-.331 1.257-.331z" id="c"/></defs><g fill="none" fill-rule="evenodd"><g transform="translate(-3 -10)"><use fill="#000" xlink:href="#a"/><use fill="#FFF" xlink:href="#a"/></g><g transform="translate(-3 -10)"><use fill="#000" xlink:href="#b"/><use fill="#FFF" xlink:href="#b"/></g><g transform="translate(166 33)"><use fill="#000" xlink:href="#c"/><use fill="#FFF" xlink:href="#c"/></g></g></svg>