<svg width="2716" height="2716" viewBox="0 0 2716 2716" xmlns="http://www.w3.org/2000/svg"><title>logo</title><g fill="none" fill-rule="evenodd"><circle fill="#FFF" cx="1358" cy="1358" r="1358"/><path d="M352.789 1168.443v48.955c0 31.152 7.297 53.831 21.8 68.036 14.505 14.114 37.854 21.217 69.97 21.217 29.009 0 48.394-5.247 57.931-15.66 9.623-10.423 14.397-34.555 14.397-72.417v-51.291c0-38.056-4.774-62.296-14.397-72.709-9.537-10.42-28.922-15.667-57.931-15.667-32.116 0-55.464 7.092-69.97 21.211-14.503 14.213-21.8 36.885-21.8 68.325zm-44.386 174.422V918.302h44.386v167.126c8.557-16.555 20.044-28.519 34.639-35.821 14.503-7.302 34.067-11.003 58.783-11.003 42.734 0 72.914 8.86 90.421 26.568 17.625 17.621 26.394 48.38 26.394 92.088v71.334c0 43.506-8.769 74.168-26.394 91.79-17.507 17.706-47.687 26.569-90.421 26.569-25.779 0-46.32-4.088-61.518-12.164-15.163-8.077-26.364-20.736-33.662-38.064v46.141h-42.628v-.001zm334.144 0v-300.17h43.211v41.072c6.322-15.674 16.053-27.058 29.385-34.262 13.333-7.29 30.947-10.901 53.048-10.901 32.703 0 55.673 7.882 68.797 23.647 13.26 15.872 19.88 43.808 19.88 83.905v2.336h-44.984v-8.863c0-23.933-3.785-40.098-11.381-48.37-7.583-8.265-21.908-12.354-43.018-12.354-24.626 0-42.449 7.007-53.44 20.921-10.991 14.014-16.546 36.884-16.546 68.616v174.422l-44.952.001zm518.465-300.17v300.17h-42.718v-40.787c-7.011 15.285-18.603 26.578-34.758 33.883-16.14 7.287-37.479 10.992-63.934 10.992-39.232 0-66.665-7.983-82.536-23.848-15.78-15.863-23.649-43.699-23.649-83.406v-197.004h44.368v187.56c0 31.142 4.685 51.683 14.011 61.606 9.249 9.835 27.461 14.79 54.414 14.79 31.154 0 53.918-7.103 68.331-21.402 14.311-14.214 21.519-36.796 21.519-67.851v-174.703h44.952zm91.786 300.171v-300.171h42.643v41.072c7.297-15.479 18.89-26.857 34.837-34.16 15.959-7.302 36.98-11.003 63.258-11.003 39.338 0 66.876 7.987 82.655 23.85 15.766 15.862 23.647 43.801 23.647 83.703v196.709h-44.384v-187.267c0-31.345-4.581-51.981-13.829-61.906-9.248-9.826-27.147-14.787-53.738-14.787-31.41 0-54.309 7.197-68.902 21.499-14.504 14.415-21.801 36.988-21.801 68.038v174.422l-44.386.001zm540.3-124.293v-51.291c0-37.866-4.777-61.909-14.418-72.231-9.622-10.403-29.791-15.562-60.523-15.562h-20.843c-30.659 0-50.613 5.159-60.041 15.382-9.445 10.318-14.117 34.446-14.117 72.412v51.291c0 38.155 4.762 62.385 14.204 72.703 9.554 10.218 29.508 15.375 59.954 15.375h20.843c30.555 0 50.688-5.247 60.434-15.66 9.639-10.425 14.507-34.557 14.507-72.419zm-95.213 128.38c-44.85 0-76.185-8.766-94.112-26.279-17.808-17.414-26.756-48.179-26.756-92.08v-71.334c0-44.094 8.857-74.851 26.68-92.373 17.703-17.516 48.948-26.283 93.617-26.283h20.843c44.852 0 76.291 8.768 94.22 26.283 17.897 17.522 26.845 48.279 26.845 92.373v71.334c0 44.091-8.842 74.843-26.665 92.266-17.822 17.43-49.158 26.094-93.934 26.094h-20.738v-.001zM535.416 1593.308c0 1.358.089 3.4.254 6.127.179 2.715.255 4.767.255 6.127 0 34.024-7.989 58.347-23.889 72.979-15.99 14.633-42.882 21.944-80.736 21.944h-35.12c-38.454 0-65.329-7.996-80.9-23.905-15.571-15.991-23.302-43.886-23.302-83.781v-54.017c0-39.722 7.731-67.621 23.302-83.695 15.571-16.077 42.446-24.075 80.9-24.075h35.12c37.523 0 64.221 7.23 80.224 21.688 15.902 14.46 23.891 38.619 23.891 72.388v6.974h-83.693v-2.471c0-13.521-2.3-22.874-6.892-28.06-4.507-5.197-12.763-7.739-24.76-7.739h-11.216c-12.598 0-21.02 2.808-25.271 8.495-4.25 5.625-6.38 19.908-6.38 42.711v41.843c0 22.803 2.13 36.921 6.38 42.534 4.251 5.521 12.673 8.333 25.271 8.333h11.216c12.087 0 20.42-2.718 24.925-8.079 4.518-5.441 6.728-15.479 6.728-30.109v-6.211h83.693v-.001zm155.838 50.014h22.884c8.333 0 14.533-1.87 18.708-5.699 4.174-3.817 6.216-9.526 6.216-17.182v-13.697c0-7.819-2.042-13.606-6.216-17.434-4.175-3.824-10.375-5.697-18.708-5.697h-22.884c-8.511 0-14.893 1.952-19.218 5.862-4.355 3.911-6.471 9.619-6.471 17.269v13.697c0 7.655 2.115 13.364 6.471 17.182 4.325 3.829 10.707 5.699 19.218 5.699zm-98.166-142.391c.347-24.92 7.327-42.869 20.931-53.673 13.603-10.803 36.319-16.247 67.958-16.247h39.64c36.921 0 63.032 6.544 78.513 19.648 15.405 13.1 23.139 35.215 23.139 66.353v179.897h-83.71v-23.898c-6.967 9.277-15.3 16.24-24.908 20.753-9.626 4.506-20.842 6.721-33.604 6.721h-30.195c-22.373 0-39.729-6.291-51.802-18.971-12.161-12.583-18.2-30.698-18.2-54.092v-24.423c0-22.621 6.877-40.06 20.663-52.219 13.782-12.164 33.512-18.213 59.037-18.213h22.958c11.996 0 22.809 2.048 32.417 6.133 9.61 4.082 17.523 10.033 23.634 17.858v-51.374c0-7.993-1.773-13.783-5.344-17.35-3.573-3.491-9.443-5.275-17.523-5.275h-14.203c-10.21 0-17.103 1.354-20.766 4.08-3.65 2.636-5.436 7.488-5.436 14.551l-83.199-.259zm299.593 195.978v-262.325h79.7l-1.023 37.426c5.963-14.374 14.46-24.752 25.51-31.217 11.068-6.546 25.873-9.782 44.326-9.782 20.073 0 35.556 3.317 46.441 9.866 10.887 6.553 19.144 17.44 24.581 32.584 5.796-14.807 14.293-25.601 25.525-32.321 11.23-6.728 26.199-10.129 44.907-10.129 28.246 0 47.884 6.719 58.86 20.076 11.067 13.355 16.592 38.528 16.592 75.451v170.371h-82.177v-151.912c0-19.485-1.952-31.898-5.857-37.344-3.917-5.532-12.25-8.249-25.269-8.249-10.885 0-18.452 3.145-22.448 9.352-4.083 6.214-6.126 19.906-6.126 41.173v146.98h-81.664v-151.912c0-19.485-1.954-31.898-5.872-37.344-3.903-5.532-12.251-8.249-25.257-8.249-10.886 0-18.468 3.145-22.462 9.352-4.083 6.214-6.124 19.906-6.124 41.173v146.98h-82.163zm531.454-53.587h22.883c8.331 0 14.549-1.87 18.723-5.699 4.158-3.817 6.199-9.526 6.199-17.182v-13.697c0-7.819-2.041-13.606-6.199-17.434-4.174-3.824-10.392-5.697-18.723-5.697h-22.883c-8.497 0-14.879 1.952-19.221 5.862-4.341 3.911-6.47 9.619-6.47 17.269v13.697c0 7.655 2.129 13.364 6.47 17.182 4.342 3.829 10.724 5.699 19.221 5.699zm-98.155-142.391c.329-24.92 7.314-42.869 20.919-53.673 13.616-10.803 36.318-16.247 67.97-16.247h39.64c36.907 0 63.034 6.544 78.515 19.648 15.389 13.1 23.138 35.215 23.138 66.353v179.897h-83.712v-23.898c-6.964 9.277-15.312 16.24-24.923 20.753-9.609 4.506-20.841 6.721-33.604 6.721h-30.192c-22.375 0-39.716-6.291-51.803-18.971-12.162-12.583-18.197-30.698-18.197-54.092v-24.423c0-22.621 6.889-40.06 20.674-52.219 13.77-12.164 33.513-18.213 59.025-18.213h22.97c11.999 0 22.792 2.048 32.405 6.133 9.61 4.082 17.523 10.033 23.645 17.858v-51.374c0-7.993-1.785-13.783-5.358-17.35-3.572-3.491-9.443-5.275-17.522-5.275h-14.202c-10.21 0-17.088 1.354-20.752 4.08-3.663 2.636-5.449 7.488-5.449 14.551l-83.187-.259zm299.582 195.978v-262.325h80.716l-1.004 37.426c6.623-14.542 14.969-25.01 24.909-31.382 9.953-6.381 22.885-9.617 38.797-9.617 26.368 0 44.746 6.719 55.032 20.246 10.301 13.441 15.39 38.539 15.39 75.281v23.391h-78.079v-16.675c0-12.588-1.876-21.433-5.614-26.373-3.753-5.016-10.466-7.477-20.328-7.477-10.299 0-17.269 2.882-21.007 8.677-3.753 5.864-5.614 19.815-5.614 41.848v146.98h-83.198zm331.15-150.981v40.403c0 20.413 2.299 33.687 6.968 39.721 4.596 6.049 13.019 9.112 25.107 9.112h10.283c12.074 0 20.496-3.063 25.18-9.191 4.67-6.206 6.968-19.394 6.968-39.642v-40.403c0-20.416-2.298-33.678-6.968-39.894-4.684-6.121-13.105-9.188-25.18-9.188h-10.283c-12.089 0-20.512 3.067-25.107 9.188-4.669 6.216-6.968 19.478-6.968 39.894zm154.128-111.344v245.487c0 26.875-1.877 46.697-5.702 59.46-3.829 12.676-10.289 23.558-19.476 32.493-7.749 7.653-18.634 13.771-32.494 18.464-13.783 4.671-28.332 6.972-43.377 6.972h-28.496c-31.984 0-56.308-5.79-72.811-17.268-16.518-11.487-24.76-28.327-24.76-50.699v-14.714h80.119c0 8.507 1.879 14.46 5.542 17.858 3.646 3.401 10.123 5.104 19.401 5.104h12.236c11.651 0 19.562-2.98 23.812-8.934 4.264-5.952 6.382-17.942 6.382-35.811v-38.362c-5.945 12.592-14.88 21.771-26.621 27.568-11.816 5.688-27.989 8.589-48.396 8.589-28.918 0-50.195-8.003-63.796-24.077-13.62-15.991-20.421-41.171-20.421-75.451V1538.7c0-37.089 7.059-64.304 21.096-81.66 14.039-17.35 35.993-26.029 65.84-26.029 16.666 0 30.872 3.064 42.613 9.275 11.831 6.123 20.584 15.14 26.201 26.964v-32.666h83.108zm142.898 110.325v41.931c0 22.803 2.133 36.921 6.382 42.534 4.173 5.521 12.674 8.333 25.272 8.333h10.193c12.419 0 20.766-2.718 24.925-8.252 4.173-5.443 6.214-19.646 6.214-42.615v-41.931c0-23.145-2.041-37.428-6.214-42.869-4.159-5.532-12.506-8.249-24.925-8.249h-10.193c-12.599 0-21.1 2.808-25.272 8.495-4.249 5.625-6.382 19.827-6.382 42.623zm-85.221-6.209c0-39.722 7.73-67.626 23.299-83.614 15.573-16.077 42.449-24.075 80.902-24.075h35.047c38.437 0 65.314 7.998 80.884 24.075 15.57 15.988 23.302 43.893 23.302 83.614v54.098c0 39.896-7.731 67.79-23.302 83.781-15.569 15.909-42.447 23.905-80.884 23.905h-35.047c-38.453 0-65.329-7.996-80.902-23.905-15.568-15.991-23.299-43.886-23.299-83.781V1538.7zm54.862-385.076l101.905 21.957 60.094-154.732c-17.465 2.868-41.761-5.329-54.417-18.726l-.855-.921-.69-1.015c-10.556-15.217-14.146-41.485-8.425-58.843l-157.325 34.791 3.318 107.883 28.229 34.789 28.166 34.817zm115.224-159.812l-.629-.907c-9.161-13.219-15.408-36.059-9.687-53.162l96.953-21.441-37.042 95.349c-17.239 2.923-37.852-7.39-48.83-19.016l-.765-.823zm-381.543 309.49l199.128-209.092 28.105 34.108 27.557 34.558-232.9 167.466-10.449-13.939-11.441-13.101zm195.162-225.952l3.246-96.217-199.566 274.568.722 40.29 195.598-218.641zm74.942 92.523l91.951 13.239-295.12 156.599-38.14-7.678 241.309-162.16z" fill="#333" fill-rule="nonzero"/></g></svg>